<?xml version="1.0" encoding="UTF-8" standalone="no" ?>
<!DOCTYPE svg PUBLIC "-//W3C//DTD SVG 1.1//EN" "http://www.w3.org/Graphics/SVG/1.1/DTD/svg11.dtd">
<svg xmlns="http://www.w3.org/2000/svg" xmlns:xlink="http://www.w3.org/1999/xlink" version="1.1" width="1280" height="800" viewBox="0 0 1280 800" xml:space="preserve">
<desc>Created with Fabric.js 4.6.0</desc>
<defs>
</defs>
<g transform="matrix(1 0 0 1 746.88 257.46)" id="jgPNYEcKp-Gf2uXHjjwjg"  >
<path style="stroke: rgb(0,0,0); stroke-width: 20; stroke-dasharray: none; stroke-linecap: butt; stroke-dashoffset: 0; stroke-linejoin: miter; stroke-miterlimit: 4; fill: none; fill-rule: nonzero; opacity: 1;" vector-effect="non-scaling-stroke"  transform=" translate(-113.27, -113.27)" d="M 113.27434 0 C 175.80177 0 226.54868 50.7469 226.54868 113.27434 C 226.54868 175.80177 175.80178 226.54868 113.27434 226.54868 C 50.74690999999999 226.54868 0 175.80178 0 113.27434 C 0 50.74690999999999 50.7469 0 113.27434 0 z" stroke-linecap="round" />
</g>
<g transform="matrix(1 0 0 1 450.05 257.46)" id="9Jn2SuN6A-brJ-2f2lGrp"  >
<path style="stroke: rgb(0,0,0); stroke-width: 20; stroke-dasharray: none; stroke-linecap: butt; stroke-dashoffset: 0; stroke-linejoin: miter; stroke-miterlimit: 4; fill: none; fill-rule: nonzero; opacity: 1;" vector-effect="non-scaling-stroke"  transform=" translate(-113.27, -113.27)" d="M 113.27434 0 C 175.80177 0 226.54868 50.7469 226.54868 113.27434 C 226.54868 175.80177 175.80178 226.54868 113.27434 226.54868 C 50.74690999999999 226.54868 0 175.80178 0 113.27434 C 0 50.74690999999999 50.7469 0 113.27434 0 z" stroke-linecap="round" />
</g>
<g transform="matrix(1 0 0 1 450.05 257.46)" id="UqKJgJP4e4dXJ2GwC7D9d"  >
<path style="stroke: rgb(0,0,0); stroke-width: 20; stroke-dasharray: none; stroke-linecap: butt; stroke-dashoffset: 0; stroke-linejoin: miter; stroke-miterlimit: 4; fill: rgb(255,255,255); fill-opacity: 0; fill-rule: nonzero; opacity: 1;" vector-effect="non-scaling-stroke"  transform=" translate(0, 0)" d="M 23.72073 -47.027 L -23.72073 0.4144599999999983 L 23.72073 47.02699" stroke-linecap="round" />
</g>
<g transform="matrix(-1 0 0 1 746.88 257.46)" id="I9BtFRSgf-8Q8_yFyVU0T"  >
<path style="stroke: rgb(0,0,0); stroke-width: 20; stroke-dasharray: none; stroke-linecap: butt; stroke-dashoffset: 0; stroke-linejoin: miter; stroke-miterlimit: 4; fill: rgb(255,255,255); fill-opacity: 0; fill-rule: nonzero; opacity: 1;" vector-effect="non-scaling-stroke"  transform=" translate(0, 0)" d="M 23.72073 -47.027 L -23.72073 0.4144599999999983 L 23.72073 47.02699" stroke-linecap="round" />
</g>
<g transform="matrix(1 0 0 1 450.05 514.01)" id="V4Gi0De-gsK6Jb2_RA59r"  >
<path style="stroke: rgb(0,0,0); stroke-width: 20; stroke-dasharray: none; stroke-linecap: butt; stroke-dashoffset: 0; stroke-linejoin: miter; stroke-miterlimit: 4; fill: none; fill-rule: nonzero; opacity: 1;" vector-effect="non-scaling-stroke"  transform=" translate(-113.27, -113.27)" d="M 113.27434 0 C 175.80177 0 226.54868 50.7469 226.54868 113.27434 C 226.54868 175.80177 175.80178 226.54868 113.27434 226.54868 C 50.74690999999999 226.54868 0 175.80178 0 113.27434 C 0 50.74690999999999 50.7469 0 113.27434 0 z" stroke-linecap="round" />
</g>
<g transform="matrix(0 1 -1 0 450.05 514.01)" id="fLhRsF7O-wTqu2SscWkD7"  >
<path style="stroke: rgb(0,0,0); stroke-width: 20; stroke-dasharray: none; stroke-linecap: butt; stroke-dashoffset: 0; stroke-linejoin: miter; stroke-miterlimit: 4; fill: rgb(255,255,255); fill-opacity: 0; fill-rule: nonzero; opacity: 1;" vector-effect="non-scaling-stroke"  transform=" translate(0, 0)" d="M 23.72073 -47.027 L -23.72073 0.4144599999999983 L 23.72073 47.02699" stroke-linecap="round" />
</g>
<g transform="matrix(-1 0 0 -1 746.88 514.01)" id="6djASFw4A6vVFS9jabVYs"  >
<path style="stroke: rgb(0,0,0); stroke-width: 20; stroke-dasharray: none; stroke-linecap: butt; stroke-dashoffset: 0; stroke-linejoin: miter; stroke-miterlimit: 4; fill: none; fill-rule: nonzero; opacity: 1;" vector-effect="non-scaling-stroke"  transform=" translate(-113.27, -113.27)" d="M 113.27434 0 C 175.80177 0 226.54868 50.7469 226.54868 113.27434 C 226.54868 175.80177 175.80178 226.54868 113.27434 226.54868 C 50.74690999999999 226.54868 0 175.80178 0 113.27434 C 0 50.74690999999999 50.7469 0 113.27434 0 z" stroke-linecap="round" />
</g>
<g transform="matrix(0 -1 1 0 746.88 514.01)" id="N_gYpfQAlOYEKatUfrL1L"  >
<path style="stroke: rgb(0,0,0); stroke-width: 20; stroke-dasharray: none; stroke-linecap: butt; stroke-dashoffset: 0; stroke-linejoin: miter; stroke-miterlimit: 4; fill: rgb(255,255,255); fill-opacity: 0; fill-rule: nonzero; opacity: 1;" vector-effect="non-scaling-stroke"  transform=" translate(0, 0)" d="M 23.72073 -47.027 L -23.72073 0.4144599999999983 L 23.72073 47.02699" stroke-linecap="round" />
</g>
</svg>