<?xml version="1.0" encoding="UTF-8" standalone="no" ?>
<!DOCTYPE svg PUBLIC "-//W3C//DTD SVG 1.1//EN" "http://www.w3.org/Graphics/SVG/1.1/DTD/svg11.dtd">
<svg xmlns="http://www.w3.org/2000/svg" xmlns:xlink="http://www.w3.org/1999/xlink" version="1.1" width="1282.9894185237276" height="716.2901555304666" viewBox="-2.0918841451699564 83.67887101820446 1282.9894185237276 716.2901555304666" xml:space="preserve">
<desc>Created with Fabric.js 4.6.0</desc>
<defs>
</defs>
<g transform="matrix(1 0 0 1 639.4 441.82)" id="dsrsGBT0rHHYfgUPpevgG"  >
<path style="stroke: rgb(0,0,0); stroke-width: 1; stroke-dasharray: none; stroke-linecap: butt; stroke-dashoffset: 0; stroke-linejoin: miter; stroke-miterlimit: 4; fill: rgb(255,255,255); fill-rule: nonzero; opacity: 1;" vector-effect="non-scaling-stroke"  transform=" translate(0, 0)" d="M -640.99471 -348.43162 C -640.99471 -348.43162 -565.7762200000001 -362.98262 -495.98635 -355.51184 C -476.2447 -353.39856000000003 -455.75797 -350.70263 -438.9737 -343.9741 C -435.46411 -342.56716 -433.23543 -341.89956 -429.07181 -340.244 C -425.95035 -339.00283 -417.98291 -335.39725000000004 -415.68826 -334.00838000000005 C -408.6164 -329.72805000000005 -398.09364 -326.68981 -389.99908 -323.37713 C -352.24521 -307.92641000000003 -309.20316 -298.46411 -274.70871999999997 -296.35133 C -241.57296999999997 -294.32177 -216.21595999999997 -299.34607 -216.21595999999997 -299.34607 C -216.21595999999997 -299.34607 -201.66254999999995 -300.25031 -180.28629999999998 -305.55165 C -119.66848999999999 -320.58493 5.7328600000000165 -346.91687 86.68459000000001 -338.54255 C 196.18312000000003 -327.21512 288.69049 -288.04855 288.69049 -288.04855 C 288.69049 -288.04855 345.32766000000004 -263.47585999999995 426.5076 -265.36377 C 507.68754 -267.25167999999996 640.9947 -332.14468999999997 640.9947 -332.14468999999997 L 637.95303 353.86927000000003 L -640.42781 357.64508 z" stroke-linecap="round" />
</g>
</svg>